<?xml version="1.0" standalone="no"?>
<!DOCTYPE svg PUBLIC "-//W3C//DTD SVG 20010904//EN"
 "http://www.w3.org/TR/2001/REC-SVG-20010904/DTD/svg10.dtd">
<svg version="1.0" xmlns="http://www.w3.org/2000/svg"
 width="256.000000pt" height="256.000000pt" viewBox="0 0 256.000000 256.000000"
 preserveAspectRatio="xMidYMid meet">
<metadata>
Created by potrace 1.14, written by Peter Selinger 2001-2017
</metadata>
<g transform="translate(0.000000,256.000000) scale(0.100000,-0.100000)"
fill="#000000" stroke="none">
<path d="M0 1280 l0 -1280 1280 0 1280 0 0 1280 0 1280 -1280 0 -1280 0 0
-1280z m565 548 c35 -77 145 -329 145 -333 0 -2 15 -36 34 -77 18 -40 48 -107
65 -148 42 -96 53 -122 88 -195 l28 -60 5 430 c3 237 7 431 8 433 1 1 25 2 52
2 33 0 50 -4 50 -12 0 -37 0 -1165 0 -1175 0 -9 -19 -13 -59 -13 -55 0 -60 2
-69 28 -13 33 -83 194 -123 280 -16 35 -29 65 -29 67 0 3 -13 34 -30 69 -16
36 -41 94 -56 128 -14 35 -38 90 -53 123 -15 33 -36 82 -46 109 -17 44 -20 47
-32 30 -11 -15 -13 -98 -13 -409 0 -214 0 -398 0 -407 0 -15 -9 -18 -55 -18
l-55 0 0 593 c0 327 3 597 7 600 3 4 30 7 60 7 l53 0 25 -52z m1057 30 c58
-29 105 -81 140 -156 37 -76 46 -109 63 -232 51 -346 -31 -661 -195 -754 l-55
-31 -195 0 -195 0 -3 575 c-1 316 0 585 3 598 5 22 6 22 200 22 179 0 198 -2
237 -22z m453 -578 l0 -595 -52 -3 -53 -3 0 601 0 601 53 -3 52 -3 0 -595z"/>
<path d="M1311 1712 c-12 -22 -16 -826 -5 -856 9 -23 185 -23 240 0 87 36 138
124 163 282 30 193 -11 442 -87 525 -36 41 -90 58 -197 64 -97 6 -103 5 -114
-15z"/>
</g>
</svg>
